<svg width="22" height="36" viewBox="0 0 22 36" fill="none" xmlns="http://www.w3.org/2000/svg">
<path d="M11.9346 34.124H6.78516V34.73H11.9346V34.124Z" fill="#F0AA00"/>
<path d="M9.35976 35.9187C7.93776 35.9187 6.78516 35.3866 6.78516 34.7302C6.78516 34.0738 7.93801 33.6296 9.35976 33.6296C10.7817 33.6296 11.9344 34.0738 11.9344 34.7302C11.9344 35.3866 10.7817 35.9187 9.35976 35.9187Z" fill="#F0AA00"/>
<path d="M9.35976 35.356C7.93776 35.356 6.78516 34.8244 6.78516 34.1685C6.78516 33.5126 7.93801 32.9812 9.35976 32.9812C10.7817 32.9812 11.9344 33.5128 11.9344 34.1685C11.9344 34.8244 10.7817 35.356 9.35976 35.356Z" fill="#FCCA03"/>
<path d="M8.12895 33.8537C8.37331 33.9543 8.62331 34.0664 8.87994 34.1305C9.79604 34.3595 10.8063 34.1419 11.5097 33.515C11.0492 33.1932 10.2585 32.9807 9.35982 32.9807C8.49942 32.9807 7.73788 33.1756 7.27051 33.4746C7.55289 33.6096 7.83994 33.7348 8.12895 33.8537Z" fill="#FADA59"/>
<path d="M9.40786 34.8747C8.31511 34.8747 7.43164 34.6579 7.43164 34.2173C7.43164 33.7498 8.31486 33.2793 9.40786 33.2793C10.5006 33.2793 11.3865 33.6365 11.3865 34.077C11.3865 34.1852 11.3865 34.3026 11.206 34.4939C10.9209 34.7958 10.2324 34.8747 9.40786 34.8747Z" fill="#DA8100"/>
<path d="M9.35978 35.0568C8.29329 35.0568 7.42871 34.6996 7.42871 34.2591C7.42871 33.8186 8.29329 33.4614 9.35978 33.4614C10.4263 33.4614 11.2909 33.8186 11.2909 34.2591C11.2909 34.6996 10.4263 35.0568 9.35978 35.0568Z" fill="#F0AA00"/>
<path d="M9.06665 34.6619C9.04824 34.6602 9.02469 34.6429 9.01341 34.656C9.00261 34.6685 9.01979 34.6914 9.02518 34.7094C9.03401 34.7382 9.04358 34.7667 9.05266 34.7954C9.06272 34.8281 9.05978 34.861 9.05389 34.8938C9.05143 34.9075 9.04456 34.9182 9.03254 34.9253C9.02739 34.9282 9.02224 34.9311 9.01635 34.9277C8.98593 34.9375 8.95673 34.9282 8.92754 34.9219C8.83995 34.8839 8.78671 34.8098 8.73715 34.7316C8.70624 34.6716 8.67508 34.6117 8.64441 34.5515C8.64123 34.5452 8.64147 34.5374 8.64 34.5301C8.60565 34.4355 8.58455 34.3381 8.57842 34.2372C8.56959 34.2292 8.5686 34.2182 8.56836 34.2072C8.57547 34.0949 8.60982 33.9931 8.67827 33.9041C8.7136 33.8635 8.75114 33.8257 8.79579 33.7957C8.80438 33.7899 8.81345 33.7848 8.82253 33.7794C8.84461 33.764 8.86915 33.7528 8.89368 33.7424C8.90448 33.737 8.91453 33.7299 8.92656 33.7275C8.93441 33.727 8.94152 33.7234 8.94839 33.7197C8.98887 33.7048 9.03132 33.6975 9.07302 33.688C9.16478 33.6719 9.25703 33.6685 9.34952 33.6749C9.36743 33.6805 9.38559 33.6822 9.40423 33.681C9.4457 33.6812 9.48618 33.6914 9.52764 33.6941C9.63976 33.7124 9.74894 33.7426 9.8564 33.7787C9.93196 33.804 10.0058 33.8337 10.0772 33.8693C10.0954 33.8783 10.1187 33.8817 10.1263 33.9063C10.1415 33.9149 10.1567 33.9231 10.1719 33.9317C10.1812 33.9407 10.1923 33.9465 10.2043 33.9504C10.2217 33.9497 10.2313 33.9621 10.2416 33.9736C10.2705 33.9999 10.3046 34.0194 10.3331 34.0469C10.3804 34.0925 10.415 34.1449 10.428 34.2109C10.443 34.2872 10.4035 34.3313 10.3282 34.3227C10.2983 34.3193 10.271 34.3079 10.2448 34.2937C10.2166 34.2789 10.1886 34.2638 10.1604 34.2489C10.1537 34.2455 10.1471 34.2421 10.1405 34.2384C10.1353 34.2409 10.1302 34.2411 10.1253 34.2387C10.0767 34.2163 10.0249 34.2004 9.98201 34.1666C9.87823 34.1195 9.76979 34.0874 9.6611 34.0562C9.65203 34.0535 9.6427 34.0518 9.63363 34.0498C9.55168 34.0296 9.46998 34.0084 9.3851 34.0038C9.37847 34.0074 9.3716 34.0106 9.36375 34.0096C9.30929 34.0057 9.25458 34.0074 9.20011 34.0094C9.14883 34.0165 9.09731 34.0233 9.05021 34.0484C9.03622 34.0557 9.02297 34.0635 9.00703 34.0786C9.07769 34.0896 9.14246 34.103 9.20673 34.1198C9.27028 34.1385 9.33456 34.1553 9.39295 34.1892C9.41969 34.205 9.45036 34.2158 9.46655 34.246C9.47857 34.2635 9.49427 34.2791 9.49378 34.3028C9.50163 34.3142 9.49795 34.3252 9.49206 34.3359C9.48176 34.3508 9.469 34.3637 9.45453 34.3744C9.43245 34.3849 9.41135 34.4009 9.38485 34.388C9.33186 34.3885 9.27911 34.3885 9.22636 34.3824C9.21164 34.3953 9.19496 34.3892 9.17901 34.3868C9.15742 34.3836 9.13608 34.38 9.11473 34.3761C9.06296 34.3673 9.01243 34.3525 8.96189 34.3378C8.95428 34.3369 8.94741 34.3325 8.93931 34.3327C8.93073 34.3347 8.93146 34.3412 8.93244 34.3478C8.93539 34.369 8.94005 34.39 8.94422 34.4109C8.9479 34.4302 8.9582 34.4372 8.9771 34.4368C9.03181 34.4348 9.08554 34.4438 9.13902 34.4548C9.17533 34.4636 9.21336 34.4667 9.24452 34.4911C9.27273 34.505 9.30217 34.5174 9.32916 34.5335C9.35664 34.5498 9.37725 34.573 9.37136 34.6097C9.36547 34.6473 9.33799 34.6626 9.30634 34.6719C9.2715 34.6819 9.23544 34.6792 9.19986 34.6816C9.18956 34.6809 9.1795 34.6802 9.1692 34.6797C9.14564 34.6709 9.12111 34.6887 9.09756 34.6768C9.0902 34.676 9.08431 34.6721 9.0794 34.667C9.07548 34.6648 9.07106 34.6634 9.06665 34.6619Z" fill="#EA9C00"/>
<path d="M9.14868 34.6475C9.13028 34.6458 9.10672 34.6285 9.09544 34.6416C9.08464 34.6541 9.10182 34.677 9.10721 34.695C9.11605 34.7237 9.12562 34.7523 9.13469 34.781C9.14475 34.8137 9.14181 34.8465 9.13592 34.8794C9.13347 34.8931 9.1266 34.9038 9.11457 34.9109C9.10942 34.9138 9.10427 34.9167 9.09838 34.9133C9.06796 34.9231 9.03876 34.9138 9.00957 34.9075C8.92198 34.8694 8.86874 34.7954 8.81918 34.7172C8.78827 34.6572 8.75711 34.5973 8.72645 34.5371C8.72326 34.5308 8.7235 34.523 8.72203 34.5157C8.68768 34.4211 8.66658 34.3237 8.66045 34.2228C8.65162 34.2148 8.65064 34.2038 8.65039 34.1928C8.65751 34.0805 8.69185 33.9787 8.7603 33.8897C8.79563 33.849 8.83317 33.8113 8.87782 33.7813C8.88641 33.7755 8.89549 33.7703 8.90456 33.765C8.92664 33.7496 8.95118 33.7384 8.97571 33.728C8.98651 33.7226 8.99657 33.7155 9.00859 33.7131C9.01644 33.7126 9.02355 33.709 9.03042 33.7053C9.0709 33.6904 9.11335 33.6831 9.15506 33.6736C9.24681 33.6575 9.33906 33.6541 9.43155 33.6605C9.44946 33.6661 9.46762 33.6678 9.48626 33.6666C9.52773 33.6668 9.56821 33.677 9.60967 33.6797C9.72179 33.698 9.83097 33.7282 9.93843 33.7643C10.014 33.7896 10.0878 33.8193 10.1592 33.8549C10.1774 33.8639 10.2007 33.8673 10.2083 33.8919C10.2235 33.9005 10.2387 33.9087 10.2539 33.9173C10.2633 33.9263 10.2743 33.9321 10.2863 33.936C10.3037 33.9353 10.3133 33.9477 10.3236 33.9592C10.3526 33.9855 10.3867 34.005 10.4151 34.0325C10.4625 34.0781 10.4971 34.1305 10.5101 34.1965C10.525 34.2728 10.4855 34.3169 10.4102 34.3083C10.3803 34.3049 10.3531 34.2935 10.3268 34.2793C10.2986 34.2645 10.2706 34.2494 10.2424 34.2345C10.2358 34.2311 10.2292 34.2277 10.2225 34.224C10.2174 34.2265 10.2122 34.2267 10.2073 34.2243C10.1587 34.2019 10.107 34.186 10.064 34.1521C9.96026 34.1051 9.85182 34.073 9.74314 34.0418C9.73406 34.0391 9.72474 34.0374 9.71566 34.0354C9.63371 34.0152 9.55202 33.994 9.46713 33.9894C9.4605 33.993 9.45363 33.9962 9.44578 33.9952C9.39132 33.9913 9.33661 33.993 9.28214 33.995C9.23087 34.0021 9.17934 34.0089 9.13224 34.034C9.11825 34.0413 9.10501 34.0491 9.08906 34.0642C9.15972 34.0752 9.22449 34.0886 9.28877 34.1054C9.35231 34.1241 9.41659 34.1409 9.47498 34.1748C9.50172 34.1906 9.53239 34.2014 9.54858 34.2316C9.5606 34.2491 9.5763 34.2647 9.57581 34.2883C9.58366 34.2998 9.57998 34.3108 9.5741 34.3215C9.56379 34.3363 9.55103 34.3493 9.53656 34.36C9.51448 34.3705 9.49338 34.3865 9.46688 34.3736C9.41389 34.3741 9.36114 34.3741 9.30839 34.368C9.29367 34.3809 9.27699 34.3748 9.26104 34.3724C9.23945 34.3692 9.21811 34.3656 9.19676 34.3617C9.145 34.3529 9.09446 34.3381 9.04392 34.3234C9.03631 34.3225 9.02944 34.3181 9.02134 34.3183C9.01276 34.3203 9.01349 34.3268 9.01448 34.3334C9.01742 34.3546 9.02208 34.3756 9.02625 34.3965C9.02993 34.4158 9.04024 34.4228 9.05913 34.4224C9.11384 34.4204 9.16757 34.4294 9.22105 34.4404C9.25736 34.4492 9.29539 34.4523 9.32655 34.4767C9.35476 34.4906 9.3842 34.503 9.41119 34.5191C9.43867 34.5354 9.45928 34.5586 9.45339 34.5953C9.4475 34.6329 9.42002 34.6482 9.38837 34.6575C9.35354 34.6675 9.31747 34.6648 9.2819 34.6672C9.27159 34.6665 9.26153 34.6658 9.25123 34.6653C9.22768 34.6565 9.20314 34.6743 9.17959 34.6623C9.17223 34.6616 9.16634 34.6577 9.16143 34.6526C9.15751 34.6502 9.15309 34.6487 9.14868 34.6475Z" fill="#FCCA03"/>
<path d="M18.1685 21.3135C18.1685 21.3135 18.3299 21.5018 18.4469 21.4967C18.6268 21.4889 18.8451 21.4843 19.1182 21.5284C19.1982 21.5413 19.4077 21.9068 19.4643 22.0442C19.3677 22.053 18.8022 22.5144 18.8022 22.5144C18.8022 22.5144 18.4526 22.387 18.256 22.2228C18.1962 22.1728 17.9943 22.1317 17.8365 22.0486C17.6206 21.9348 18.1685 21.3135 18.1685 21.3135Z" fill="#602E2E"/>
<path d="M9.82715 28.7202C12.5009 28.3192 15.3956 25.6817 15.3956 25.6817L12.0151 25.3459L9.82715 28.7202Z" fill="#D87B33"/>
<path d="M13.8466 22.303L12.6602 23.4635C12.6602 23.4635 14.2294 26.7761 14.3942 27.1543C14.5591 27.5324 12.7607 30.7876 12.7607 30.7876L12.8091 30.8845C13.4835 30.0871 15.6244 27.4647 15.7546 26.8682C15.8243 26.5512 13.8466 22.303 13.8466 22.303Z" fill="#7F4646"/>
<path d="M12.9771 32.2382L12.3701 31.0273C12.3701 31.0273 13.0993 30.3663 12.9781 30.6009C12.6817 31.1745 13.2104 32.0209 12.9771 32.2382Z" fill="#7F4646"/>
<path d="M14.354 27.4791C14.7949 27.288 15.2362 27.1623 15.6585 27.1043C15.708 27.0081 15.7419 26.9277 15.7549 26.868C15.8241 26.5512 13.8466 22.3027 13.8466 22.3027L12.6602 23.4632C12.6602 23.4632 14.2294 26.7759 14.3942 27.154C14.4183 27.2086 14.4004 27.3238 14.354 27.4791Z" fill="#602E2E"/>
<path d="M13.1056 16.8547C13.5254 18.5887 14.7286 20.6059 14.8687 20.7153C15.0087 20.8247 15.8458 20.5679 15.9246 20.3377C16.0034 20.1074 15.1871 16.6897 14.8407 16.2293C14.4943 15.769 12.8625 15.8509 13.1056 16.8547Z" fill="#7F4646"/>
<path d="M14.5961 16.0567C13.9982 15.8014 12.7359 15.9529 12.9425 16.8052C13.3623 18.5392 14.7178 20.647 14.8579 20.7564C14.9298 20.8125 15.1265 20.5771 15.3714 20.4833C14.7198 19.0682 14.8756 16.4339 14.5961 16.0567Z" fill="#602E2E"/>
<path d="M14.6631 20.1931C14.9256 21.0882 15.8488 21.4267 18.1592 22.1595L18.5085 21.5697C18.5085 21.5697 16.2298 19.8434 15.7821 19.3033C15.2691 18.6839 14.6631 20.1931 14.6631 20.1931Z" fill="#7F4646"/>
<path d="M14.9892 19.2859C14.7066 19.618 14.5508 20.2817 14.5508 20.2817C14.8133 21.1768 15.8491 21.4266 18.1597 22.1595L18.4095 21.8885C16.344 20.7682 15.2439 20.2398 14.9892 19.2859Z" fill="#602E2E"/>
<path d="M11.342 22.1033L9.82379 22.5759C9.82379 22.5759 10.6278 27.7969 10.5424 28.3619C10.4499 28.9737 8.66211 33.8432 8.66211 33.8432L8.7784 33.8764C10.4369 31.0644 11.7966 28.7422 11.9941 28.2844C12.1918 27.8268 11.342 22.1033 11.342 22.1033Z" fill="#7F4646"/>
<path d="M10.5418 28.3621C10.5225 28.4898 10.4287 28.8041 10.2936 29.2195C10.7482 29.0524 11.2057 28.963 11.6461 28.9466C11.8245 28.6255 11.9447 28.3977 11.9938 28.2844C12.1915 27.8266 11.3414 22.1033 11.3414 22.1033L9.82324 22.5759C9.82324 22.5762 10.6272 27.7971 10.5418 28.3621Z" fill="#602E2E"/>
<path d="M14.7955 16.1758C14.4721 15.9312 14.1048 15.6052 13.4849 15.4012C12.8649 15.1973 10.7476 15.5642 10.5825 15.8088C10.4171 16.0535 10.0258 18.2158 10.1988 18.7487C10.3627 19.2531 9.91908 21.1082 10.0283 22.372L13.4243 22.2292C13.1708 21.1898 13.8921 18.9273 13.8921 18.9273C13.8921 18.9273 14.1465 18.9068 14.2501 18.7643C14.583 18.3058 15.1188 16.4204 14.7955 16.1758Z" fill="#7F4646"/>
<path d="M10.7516 16.8223C10.9216 17.6821 10.7302 18.0305 11.3252 18.1068C11.9199 18.183 12.5892 18.2157 12.5892 18.2157C12.5892 18.2157 10.8792 18.4335 10.571 18.194C10.3409 18.0149 10.7516 16.8223 10.7516 16.8223Z" fill="#602E2E"/>
<path d="M10.7087 21.982C10.5995 20.7182 10.5414 19.104 10.5919 18.5748C10.6628 17.8346 10.5684 16.1778 10.7335 15.9332C10.7428 15.9193 10.6101 15.7682 10.5826 15.8089C10.4172 16.0536 9.95157 18.1943 10.1245 18.7271C10.2884 19.2315 9.91919 21.1085 10.0284 22.3721L13.4244 22.2293C13.4182 22.204 13.4131 22.1774 13.4079 22.1506L10.7087 21.982Z" fill="#602E2E"/>
<path d="M14.7957 16.1758C14.5467 15.9874 14.2702 15.7511 13.8732 15.5591C14.543 16.7242 11.0285 19.869 10.3072 19.4733C10.2534 19.4438 10.2056 19.4058 10.1607 19.3634C10.0317 20.1784 9.94874 21.4522 10.0282 22.372L13.4242 22.2292C13.1708 21.1898 13.8921 18.9273 13.8921 18.9273C13.8921 18.9273 14.1465 18.9068 14.25 18.7643C14.5832 18.3057 15.119 16.4204 14.7957 16.1758Z" fill="#602E2E"/>
<path d="M9.82735 28.72C10.9319 27.5008 15.3958 25.6815 15.3958 25.6815C15.3958 25.6815 13.8124 22.0516 13.821 21.797C13.8912 19.6741 14.7982 18.3355 14.7023 15.8649L14.2489 15.6887C13.8423 18.1832 10.0526 20.261 9.72824 21.8116C9.40954 23.3352 9.82735 28.72 9.82735 28.72Z" fill="#F2A943"/>
<path d="M14.7069 16.3663C14.7094 16.2038 14.7086 16.0376 14.702 15.8646L14.2486 15.6885C14.2229 15.8466 14.1831 16.0033 14.1318 16.158C14.3585 16.1845 14.555 16.2528 14.7069 16.3663Z" fill="#E68E38"/>
<path d="M13.821 21.7969C13.8627 20.5353 14.1991 19.5498 14.4459 18.4402C14.1763 18.7762 13.8252 19.1044 13.4074 19.3904C12.4704 20.0319 11.4338 20.3134 10.5025 20.5648C10.1016 21.0114 9.80871 21.4278 9.72824 21.8116C9.40954 23.3356 9.82735 28.7202 9.82735 28.7202C10.0013 28.5282 10.2587 28.3214 10.5688 28.1089C10.3239 27.3884 10.138 26.5388 10.0425 25.6198C9.75694 22.8707 10.3992 20.6939 11.463 20.5777C12.4044 20.4751 14.3995 23.2771 15.0443 25.8286C15.2643 25.735 15.3958 25.6814 15.3958 25.6814C15.3958 25.6814 13.8124 22.0515 13.821 21.7969Z" fill="#E68E38"/>
<path d="M10.3048 17.8563C8.55454 17.86 6.82072 17.199 6.68701 17.0813C6.5533 16.9636 6.66542 16.0487 6.87004 15.9208C7.07465 15.7929 10.1826 15.8185 10.7403 15.7081C11.4047 15.577 11.1139 17.8546 10.3048 17.8563Z" fill="#7F4646"/>
<path d="M10.2409 17.1377C8.49066 17.1413 6.84884 16.6328 6.71513 16.5151C6.6933 16.4959 6.67858 16.4537 6.66925 16.3984C6.61454 16.6896 6.61086 17.0141 6.68692 17.0811C6.82063 17.1988 8.53359 18.0526 10.2838 18.0489C10.5868 18.0482 10.8192 17.7073 10.9571 17.288C11.0662 16.9547 10.6482 17.1369 10.2409 17.1377Z" fill="#602E2E"/>
<path d="M7.21115 17.2441C6.39294 16.9997 5.84706 16.1816 4.6709 14.0141L4.98322 13.4866C4.98322 13.4866 7.2877 15.4633 7.89761 15.799C8.59659 16.184 7.21115 17.2441 7.21115 17.2441Z" fill="#7F4646"/>
<path d="M4.81737 13.7668L4.6709 14.0144C5.84681 16.1816 6.32449 17.2405 7.23691 17.3153C7.23691 17.3153 7.54359 17.1121 7.77372 16.8695C6.87773 16.7121 6.17606 15.7121 4.81737 13.7668Z" fill="#602E2E"/>
<path d="M13.7375 15.6408C13.3555 14.9186 13.7231 13.9913 13.7231 13.9913L12.0577 13.4265C12.0577 13.4265 12.3165 15.0261 11.9912 15.4768L13.7375 15.6408Z" fill="#7F4646"/>
<path d="M21.9365 19.7051C21.5415 20.6563 20.9136 20.1936 20.8548 19.8513L20.0361 20.714C20.5145 21.2274 20.2475 22.1762 19.6523 22.2746C19.6523 22.2746 21.0091 22.6717 21.7927 21.1594C22.1494 20.4704 21.9365 19.7051 21.9365 19.7051Z" fill="#98B0AD"/>
<path d="M21.9373 19.7051C21.5437 20.6563 20.9181 20.1936 20.8592 19.8513L20.3887 20.3488C20.7736 20.7196 21.1848 21.378 20.8467 22.144C21.1774 21.9837 21.5204 21.6886 21.7935 21.1597C22.1495 20.4704 21.9373 19.7051 21.9373 19.7051Z" fill="#BADBD6"/>
<path d="M10.0409 34.4534H8.22559C8.22559 34.4534 8.87819 33.2856 8.88604 33.5499C8.90591 34.2151 10.256 34.2185 10.0409 34.4534Z" fill="#7F4646"/>
<path d="M12.7373 16.2127C11.8345 16.3216 11.5158 16.3323 11.5371 16.1147C11.5582 15.8969 12.7373 16.2127 12.7373 16.2127Z" fill="#602E2E"/>
<path d="M12.9912 16.2005C13.7743 16.2885 14.0506 16.2973 14.0322 16.1213C14.0138 15.9457 12.9912 16.2005 12.9912 16.2005Z" fill="#602E2E"/>
<g opacity="0.68">
<path d="M10.708 26.2553C10.7426 26.0002 10.7563 25.6143 10.4536 25.5634C10.1425 25.511 9.85468 25.8122 9.68 26.0341C9.67558 26.0397 9.67141 26.0456 9.66699 26.0512C9.69521 26.6822 9.72931 27.2692 9.7585 27.7323C10.1618 27.3922 10.6358 26.7887 10.708 26.2553Z" fill="#975555"/>
<path d="M10.5226 24.0471C10.4782 24.0588 10.4422 24.0917 10.4095 24.1246C10.2469 24.2871 10.1105 24.4771 10.0072 24.6845C9.96548 24.7681 9.92843 24.8599 9.93947 24.9532C9.95076 25.0465 10.0271 25.1374 10.1186 25.1309C10.1728 25.127 10.2194 25.0911 10.2606 25.0551C10.3082 25.0132 10.3536 24.9686 10.3963 24.9216C10.4073 24.9237 10.4189 24.924 10.4294 24.9206C10.4682 24.9084 10.4942 24.8721 10.5175 24.838C10.6151 24.6935 10.713 24.5412 10.7408 24.3677C10.753 24.2912 10.7501 24.2091 10.7125 24.1419C10.6748 24.0744 10.5958 24.0279 10.5226 24.0471Z" fill="#975555"/>
<path d="M12.2674 25.0957C12.0744 24.9772 11.8131 25.0321 11.6396 25.179C11.4662 25.3257 11.367 25.5462 11.3055 25.7679C11.2382 26.0098 11.082 26.7298 11.424 26.8263C11.6156 26.8804 12.0219 26.6046 12.1941 26.5135C12.6448 26.2744 12.737 25.3839 12.2674 25.0957Z" fill="#975555"/>
<path d="M13.5686 25.8708C13.5043 25.8384 13.4297 25.8328 13.3591 25.843C13.1508 25.873 12.9768 26.037 12.888 26.2324C12.8009 26.4241 12.7864 26.6422 12.8007 26.8534C13.1456 26.6834 13.4837 26.524 13.797 26.38C13.795 26.3518 13.7923 26.3235 13.7889 26.2957C13.7685 26.1298 13.715 25.9446 13.5686 25.8708Z" fill="#975555"/>
<path d="M13.7075 25.2712C13.7326 25.2807 13.7605 25.2773 13.787 25.2724C13.9318 25.2459 14.1006 25.1996 14.1523 25.0585C14.1882 24.9606 14.1499 24.8465 14.0797 24.7705C14.0095 24.6945 13.9129 24.6506 13.8165 24.617C13.72 24.5834 13.6207 24.5583 13.5201 24.5417C13.4742 24.5342 13.4259 24.5288 13.3829 24.5466C13.3005 24.5805 13.2696 24.6845 13.2669 24.7756C13.2622 24.9269 13.3113 25.0856 13.4224 25.1855C13.499 25.2547 13.6079 25.2868 13.7075 25.2712Z" fill="#975555"/>
<path d="M14.7315 24.9698C14.6969 25.039 14.691 25.1192 14.6898 25.1969C14.6856 25.4467 14.7234 25.6964 14.7987 25.934C15.1657 25.7753 15.3961 25.6815 15.3961 25.6815C15.3961 25.6815 15.2312 25.3034 15.0085 24.7834C14.8932 24.8068 14.784 24.8648 14.7315 24.9698Z" fill="#975555"/>
<path d="M14.0852 22.5672C13.9569 22.5479 13.8264 22.5725 13.6991 22.5984C13.5209 22.6344 13.3225 22.6866 13.2302 22.8466C13.165 22.9597 13.1699 23.1005 13.1905 23.2302C13.2516 23.6163 13.4613 24.0035 13.8134 24.1548C14.0386 24.2515 14.2859 24.2408 14.5332 24.2337C14.5867 24.2837 14.6576 24.3149 14.7297 24.3081C14.7533 24.3059 14.7754 24.2978 14.797 24.2888C14.5511 23.7097 14.2798 23.0606 14.0852 22.5672Z" fill="#975555"/>
<path d="M12.7947 22.3575C12.7476 22.2462 12.6468 22.1673 12.5394 22.1161C12.2582 21.9821 11.9066 22.0184 11.6571 22.2072C11.4076 22.396 11.2702 22.7294 11.3122 23.0444C11.3227 23.1238 11.3448 23.2035 11.3914 23.2676C11.4689 23.374 11.6022 23.4218 11.7307 23.4396C11.9589 23.471 12.1969 23.424 12.3973 23.308C12.4689 23.2666 12.5384 23.2091 12.5877 23.1414C12.5877 23.1414 12.6574 23.0953 12.7172 22.9832C12.7822 22.8617 12.8203 22.725 12.8271 22.5863C12.8311 22.5086 12.8249 22.4287 12.7947 22.3575Z" fill="#975555"/>
<path d="M10.3846 23.4245C10.3858 23.4255 10.3866 23.4269 10.3878 23.4279C10.611 23.1121 10.6942 22.6962 10.6098 22.3159C10.5696 22.1339 10.4717 21.9412 10.2963 21.891C10.1221 21.841 9.94347 21.9512 9.80976 22.0761C9.75947 22.1232 9.71236 22.1736 9.66771 22.2262C9.61521 22.7342 9.60196 23.4325 9.61104 24.1857C9.69764 24.1798 9.78155 24.1398 9.85564 24.0911C10.0951 23.9337 10.2784 23.6947 10.3846 23.4245Z" fill="#975555"/>
<path d="M10.1841 21.4766C10.3036 21.5332 10.4422 21.5283 10.5713 21.5017C10.7312 21.4688 10.8905 21.3974 10.9918 21.2671C11.0487 21.2361 11.1059 21.2054 11.1628 21.1745C11.2389 21.1333 11.3166 21.0907 11.3735 21.0247C11.4305 20.9586 11.4626 20.8629 11.4322 20.7805C11.4123 20.7272 11.3696 20.6865 11.3267 20.6499C11.2153 20.5547 11.0924 20.4706 10.9552 20.4224C10.8647 20.3904 10.7685 20.378 10.6729 20.3792C10.3868 20.6828 10.1441 20.9725 9.97266 21.2486C10.0158 21.3472 10.0882 21.4313 10.1841 21.4766Z" fill="#975555"/>
<path d="M12.0793 20.7285C12.2894 20.8401 12.6755 20.8006 12.6755 20.8006C12.7182 20.793 12.7572 20.776 12.7854 20.7421C12.8183 20.7022 12.8289 20.6473 12.8281 20.5952C12.8252 20.4088 12.6873 20.2417 12.5173 20.1756C12.347 20.1096 12.1532 20.1325 11.9849 20.2039C11.9275 20.2283 11.8696 20.2607 11.8377 20.3155C11.7928 20.3932 11.8146 20.4972 11.8681 20.5689C11.9218 20.6408 12.0011 20.687 12.0793 20.7285Z" fill="#975555"/>
<path d="M13.7711 19.7382C13.6367 19.7216 13.5074 19.8198 13.4475 19.9445C13.3879 20.0693 13.3852 20.2142 13.3975 20.3526C13.4191 20.5948 13.5766 21.1503 13.8526 21.3197C13.8972 20.8436 13.9792 20.4016 14.0773 19.9713C14.0658 19.9555 14.0545 19.9397 14.0435 19.926C13.9721 19.8371 13.8825 19.7518 13.7711 19.7382Z" fill="#975555"/>
<path d="M13.0846 19.5994C13.1222 19.5502 13.1337 19.4856 13.141 19.4237C13.1531 19.3236 13.1545 19.2137 13.0974 19.1316C13.0331 19.0392 12.9144 19.0095 12.8062 18.9861C12.5969 18.9413 12.3859 18.8982 12.1727 18.8887C11.9838 19.0785 11.7934 19.2644 11.6064 19.4466C11.9467 19.5953 12.445 19.654 12.7539 19.6854C12.8722 19.6976 13.0113 19.6954 13.0846 19.5994Z" fill="#975555"/>
<path d="M13.6038 18.3712C13.5758 18.3863 13.5488 18.4058 13.5331 18.4338C13.5174 18.4616 13.514 18.4947 13.5147 18.5269C13.5204 18.7342 13.6828 18.8967 13.8356 19.0327C13.9588 19.1423 14.0891 19.2527 14.2319 19.3314C14.2409 19.2949 14.25 19.2578 14.2593 19.2213L14.161 19.1409C14.1938 19.1669 14.227 19.193 14.2598 19.2188C14.292 19.0902 14.3236 18.9608 14.3553 18.8307C14.3322 18.7452 14.2988 18.6636 14.2505 18.5893C14.1119 18.3775 13.8236 18.2518 13.6038 18.3712Z" fill="#975555"/>
<path d="M13.8818 17.5654C13.9868 17.445 13.9439 17.2406 13.8256 17.1344C13.7886 17.101 13.7456 17.0778 13.7005 17.0588C13.5773 17.2581 13.4385 17.454 13.2891 17.647C13.5055 17.7045 13.7724 17.6906 13.8818 17.5654Z" fill="#975555"/>
<path d="M14.4049 16.6372C14.3502 16.644 14.2913 16.6579 14.2565 16.7018C14.227 16.739 14.2211 16.79 14.2194 16.8377C14.2113 17.0724 14.2773 17.3077 14.4012 17.5051C14.4 17.5679 14.4373 17.6325 14.4927 17.6637C14.5077 17.6722 14.5239 17.6773 14.5403 17.6817C14.5546 17.6944 14.57 17.7054 14.586 17.7153C14.6397 17.3832 14.6799 17.0348 14.6978 16.6606C14.6046 16.6292 14.5028 16.625 14.4049 16.6372Z" fill="#975555"/>
<path d="M14.593 16.0976C14.6372 16.0708 14.6725 16.034 14.7039 15.993C14.703 15.9497 14.7037 15.9087 14.702 15.8646L14.2486 15.6885C14.2238 15.8405 14.186 15.9911 14.1377 16.1402C14.2937 16.169 14.4588 16.1789 14.593 16.0976Z" fill="#975555"/>
</g>
<path opacity="0.6" d="M12.5038 16.8983C13.4661 16.8983 14.3144 16.6234 14.8194 16.2048C14.8164 16.2017 14.814 16.1983 14.811 16.1951C14.8056 16.1892 14.8019 16.1802 14.7958 16.1758C14.7671 16.1542 14.7374 16.131 14.7077 16.1081C14.707 16.0282 14.7053 15.9473 14.7021 15.8645L14.2487 15.6883C14.2448 15.7129 14.2381 15.7373 14.2335 15.7619C14.2126 15.7485 14.1903 15.7353 14.169 15.7219C14.1596 15.7163 14.1506 15.7105 14.1412 15.7049C14.1057 15.6834 14.0691 15.6622 14.0313 15.6413C14.0183 15.634 14.0048 15.6269 13.9916 15.6198C13.9531 15.5991 13.9143 15.5787 13.8733 15.5589C13.8066 15.5265 13.7359 15.4958 13.6618 15.4666C13.4123 14.778 13.7227 13.991 13.7227 13.991L12.0573 13.4263C12.0573 13.4263 12.2941 14.896 12.0259 15.4132C11.5038 15.4846 10.9957 15.5986 10.7413 15.7076C10.7411 15.7076 10.7408 15.7076 10.7406 15.7076C10.588 15.7375 10.2445 15.7575 9.82227 15.7733C10.1729 16.4249 11.2406 16.8983 12.5038 16.8983Z" fill="#833131"/>
<path d="M12.5703 14.5126C13.2926 15.3617 14.9921 14.7738 14.9921 14.7738C14.9921 14.7738 14.3974 10.6154 13.2288 10.5501C12.3701 10.5024 11.2291 12.0868 12.5703 14.5126Z" fill="#7F4646"/>
<path d="M13.5462 12.3186C13.5111 12.1873 13.4122 12.1003 13.3256 12.1247C13.2388 12.1491 13.1971 12.2753 13.2322 12.4068C13.2672 12.5382 13.3661 12.6252 13.4527 12.6008C13.5396 12.5764 13.5813 12.4502 13.5462 12.3186Z" fill="#3B1C1C"/>
<path d="M14.2478 12.1006C14.2127 11.9693 14.1313 11.8774 14.066 11.8959C14.0008 11.9144 13.976 12.0358 14.0111 12.1671C14.0461 12.2984 14.1276 12.3903 14.1929 12.3718C14.2581 12.3535 14.2827 12.2322 14.2478 12.1006Z" fill="#3B1C1C"/>
<path d="M11.3037 13.2625C11.6649 13.6 12.1322 14.057 12.1322 14.057L12.3552 13.3931L12.7269 13.1862L12.302 12.0759L11.3037 13.2625Z" fill="#542828"/>
<path d="M13.4967 9.89733C13.4905 9.90123 13.4844 9.90537 13.4783 9.90903L11.4233 4.1499C11.4233 4.1499 12.0094 6.99596 12.7405 9.3847L10.4655 4.59237C10.4655 4.59237 11.3391 7.38556 12.3092 9.69072L9.5538 5.00243C9.5538 5.00243 10.6581 7.68208 11.8195 9.88418L8.69585 5.62349C8.69585 5.62349 10.2449 8.51682 11.7045 10.6405L7.77582 6.16415C7.77582 6.16415 9.35483 8.58114 10.9019 10.5184L7.0479 6.94041C7.0479 6.94041 8.87446 9.19855 10.6129 10.967L6.35113 7.66941C6.35113 7.66941 8.35041 9.73409 10.229 11.3339L5.78072 8.57359C5.78072 8.57359 8.11071 10.5323 10.188 11.9391L5.44043 9.22413C5.44043 9.22413 8.58667 11.607 10.8269 12.9369L11.5651 13.5148C12.2668 12.2466 12.951 11.5383 13.9213 11.0286L13.4967 9.89733Z" fill="#D9BC91"/>
<path d="M9.60146 8.80311C9.76436 8.93882 9.92653 9.07892 10.0875 9.22438C11.1101 10.1488 11.9454 11.1431 12.5443 12.0941C12.9513 11.6421 13.3937 11.3056 13.9209 11.0286L13.4962 9.89733C13.4901 9.90123 13.484 9.90537 13.4778 9.90903L11.4229 4.1499C11.4229 4.1499 12.009 6.99596 12.7401 9.3847L10.4651 4.59237C10.4651 4.59237 11.3387 7.38556 12.3088 9.69072L9.55337 5.00243C9.55337 5.00243 10.6576 7.68208 11.8191 9.88418L8.69542 5.62349C8.69542 5.62349 10.2445 8.51682 11.704 10.6405L7.77539 6.16415C7.77539 6.16415 8.57912 7.39457 9.60146 8.80311Z" fill="#EBD4AC"/>
<path d="M7.45925 7.32213L7.04785 6.94019C7.04785 6.94019 7.13294 7.04544 7.28343 7.22762C7.34195 7.25864 7.40023 7.28965 7.45925 7.32213Z" fill="#EBD4AC"/>
<path d="M12.2905 12.989C12.0307 12.643 11.3417 12.902 11.5967 13.3084C11.8516 13.7148 12.4463 13.9906 12.5456 13.8454C12.6445 13.7002 12.432 13.1776 12.2905 12.989Z" fill="#7F4646"/>
<path d="M12.1976 13.1337C12.0404 12.9244 11.6235 13.0811 11.7778 13.3269C11.9322 13.5728 12.2921 13.7397 12.3519 13.652C12.4118 13.564 12.2832 13.2478 12.1976 13.1337Z" fill="#4D1F1F"/>
<path d="M12.2679 13.3178C12.1588 13.1724 11.8695 13.2813 11.9765 13.4518C12.0834 13.6224 12.3332 13.7384 12.3749 13.6775C12.4166 13.6165 12.3275 13.397 12.2679 13.3178Z" fill="#7F4646"/>
<path d="M19.9629 20.5956L19.8164 20.4536L20.0019 19.7541L20.7043 19.592L20.799 19.7068L19.9629 20.5956Z" fill="#BADBD6"/>
<path d="M21.1769 19.2988L16.7991 23.9744C16.5672 24.2222 16.4556 24.5633 16.4951 24.9042L21.317 19.321L21.1769 19.2988Z" fill="#B34F45"/>
<path d="M13.7783 12.1194C13.7783 12.1194 14.7874 12.8269 14.8193 13.1534C14.8512 13.4799 14.2562 13.4146 14.2562 13.4146L13.7783 12.1194Z" fill="#602E2E"/>
<path d="M13.6328 12.0796C13.6328 12.0796 14.6419 12.7871 14.6738 13.1136C14.7057 13.4401 14.1107 13.3748 14.1107 13.3748L13.6328 12.0796Z" fill="#7F4646"/>
<path d="M13.6929 11.8835C13.6929 11.8835 13.1974 12.0794 12.6733 12.0431L12.6309 12.2973C13.4309 12.3336 13.8171 12.2149 13.8171 12.2149L13.6929 11.8835Z" fill="#542828"/>
<path d="M14.26 11.5449C13.9965 11.7413 13.7578 11.8429 13.7578 11.8429L13.893 12.1713C13.893 12.1713 14.0704 12.0766 14.3631 11.82L14.26 11.5449Z" fill="#542828"/>
<path d="M14.5359 13.7127C13.8916 13.5531 13.0984 13.6474 13.0631 13.865C13.0278 14.0828 13.056 14.4746 13.2331 14.4673C13.4102 14.46 13.9129 13.836 14.5714 13.8504L14.5359 13.7127Z" fill="#3B1C1C"/>
<path d="M14.4418 13.7415C13.8947 13.606 13.1685 13.6805 13.1383 13.8655C13.1081 14.0504 13.1324 14.3832 13.2825 14.3769C13.4329 14.3708 13.9037 13.7834 14.4629 13.7958L14.4418 13.7415Z" fill="#FDEFDA"/>
<path d="M13.502 13.8993C13.502 13.8993 13.1249 13.9482 13.1355 13.823C13.1355 13.823 13.0346 13.9319 13.0982 14.1714C13.1619 14.4109 13.2363 14.3836 13.2363 14.3836C13.1038 14.1551 13.2311 13.9536 13.502 13.8993Z" fill="#3B1C1C"/>
<path d="M18.3613 21.4901C18.6739 21.3595 19.0777 21.2677 19.206 21.3157C19.3343 21.3637 19.3648 21.5786 19.3662 21.676C19.3677 21.7735 19.0365 21.9396 18.9725 21.9516C18.9084 21.9635 18.8147 21.8324 18.8483 21.7825C18.8819 21.7328 19.0441 21.6414 19.0299 21.6122C19.0154 21.5829 18.9754 21.5559 18.9754 21.5559C18.9754 21.5559 18.4492 21.7011 18.3613 21.4901Z" fill="#7F4646"/>
<path d="M19.0085 21.9268C18.9882 21.8257 19.1557 21.7341 19.2009 21.7711C19.246 21.8079 19.5512 21.9862 19.5306 22.0618C19.51 22.137 19.392 22.2462 19.3417 22.2282C19.2912 22.2099 19.025 22.0084 19.0085 21.9268Z" fill="#7F4646"/>
<path d="M18.7673 22.085C18.747 21.9839 18.9145 21.8923 18.9597 21.9293C19.0048 21.9661 19.3098 22.1444 19.2894 22.22C19.2688 22.2953 19.1508 22.4044 19.1005 22.3864C19.05 22.3681 18.7838 22.1666 18.7673 22.085Z" fill="#7F4646"/>
<path d="M18.5539 22.2655C18.5375 22.1673 18.6952 22.0689 18.7362 22.1028C18.7772 22.1369 19.0559 22.2969 19.035 22.372C19.0142 22.447 18.9018 22.5603 18.8557 22.545C18.8096 22.5299 18.5672 22.3452 18.5539 22.2655Z" fill="#7F4646"/>
<path d="M5.40448 13.8444C5.40448 13.8444 5.19374 13.5884 5.16847 13.4724C5.12995 13.2938 5.07843 13.0784 4.96704 12.8218C4.93441 12.7466 4.53647 12.6352 4.39245 12.6152C4.40889 12.7125 4.11816 13.3861 4.11816 13.3861C4.11816 13.3861 4.32744 13.6963 4.53254 13.8469C4.59486 13.8927 4.68515 14.0801 4.80389 14.2136C4.96655 14.3961 5.40448 13.8444 5.40448 13.8444Z" fill="#602E2E"/>
<path d="M8.38753 2.64697L0.881836 22.7634L1.0234 23.228L8.50087 2.67597L8.38753 2.64697Z" fill="#B34F45"/>
<path d="M8.2877 3.13717L8.11621 2.55485L9.18737 0.697998L8.80954 2.84674L8.2877 3.13717Z" fill="#BADBD6"/>
<path d="M8.2877 3.13717L8.11621 2.55485L9.18737 0.697998L8.2877 3.13717Z" fill="#98B0AD"/>
<path d="M5.19673 13.5546C5.24015 13.2142 5.22347 12.7947 5.1457 12.6809C5.06768 12.5673 4.85742 12.5929 4.76518 12.6166C4.67293 12.6402 4.6008 13.0081 4.60571 13.0739C4.61086 13.1397 4.75831 13.1979 4.79682 13.1521C4.8351 13.1063 4.87975 12.9235 4.91115 12.9301C4.94256 12.9367 4.97813 12.9691 4.97813 12.9691C4.97813 12.9691 4.97519 13.5229 5.19673 13.5546Z" fill="#7F4646"/>
<path d="M4.62006 13.0328C4.7204 13.0267 4.76407 12.8388 4.71795 12.804C4.67158 12.7692 4.4255 12.5158 4.35975 12.5555C4.294 12.595 4.22113 12.7389 4.25106 12.7838C4.28099 12.8284 4.53885 13.0377 4.62006 13.0328Z" fill="#7F4646"/>
<path d="M4.53241 13.3094C4.63275 13.3033 4.67642 13.1155 4.63006 13.0806C4.58369 13.0458 4.33761 12.7924 4.27186 12.8321C4.20611 12.8716 4.13324 13.0156 4.16317 13.0604C4.1931 13.105 4.4512 13.3143 4.53241 13.3094Z" fill="#7F4646"/>
<path d="M4.41631 13.5659C4.51322 13.5567 4.56572 13.3766 4.52303 13.3452C4.48059 13.3137 4.25831 13.0815 4.1928 13.1213C4.1273 13.161 4.04928 13.3003 4.07553 13.3418C4.10178 13.3834 4.33805 13.5735 4.41631 13.5659Z" fill="#7F4646"/>
</svg>
